<svg id="Layer_1" data-name="Layer 1" xmlns="http://www.w3.org/2000/svg" viewBox="0 0 213.91 238.58">
  <defs>
    <style>
      .cls-1 {
        fill: #231f20;
      }
    </style>
  </defs>
  <title>android</title>
  <path class="cls-1" d="M174.4,62.13c-.2-14.38-6.4-27.51-16.4-37.64l12.64-22A1.66,1.66,0,1,0,167.76.83L155.47,22.14a71.44,71.44,0,0,0-41-17.56h-15a71.51,71.51,0,0,0-41,17.56L46.18.87a1.67,1.67,0,0,0-2.89,1.62L56,24.49C45.91,34.61,39.74,47.74,39.54,62.13ZM129.15,35.38a7.74,7.74,0,0,1,15.48,0h0a7.74,7.74,0,1,1-15.48,0Zm-57.74,0a7.74,7.74,0,0,1,15.47,0h0a7.74,7.74,0,0,1-15.47,0ZM15,77.17a15,15,0,0,0-15,15v64.15a15,15,0,0,0,29.9,0V92.12A15,15,0,0,0,15,77.17Zm24.1-8.68h0c-.05.57-.09,1.14-.09,1.72V167.4a18.67,18.67,0,0,0,18.47,18.87h.8v38.44a15,15,0,0,0,29.91,0V186.3h37.55v38.44a15,15,0,0,0,29.91,0V186.3h.73a18.68,18.68,0,0,0,18.55-18.81V70.24a14,14,0,0,0-.07-1.72ZM199,77.17a15,15,0,0,0-15,15v64.15a15,15,0,0,0,29.91,0V92.12A15,15,0,0,0,199,77.17Z"/>
</svg>
