<svg id="Layer_1" data-name="Layer 1" xmlns="http://www.w3.org/2000/svg" viewBox="0 0 195.05 239.61">
  <title>apple</title>
  <path d="M162.93,127.41c-.27-30.28,24.8-45,25.95-45.69C174.68,61,152.67,58.2,144.94,58,126.45,56,108.53,69,99.11,69,89.51,69,75,58.16,59.38,58.48c-20.14.31-38.95,12-49.27,30-21.29,36.85-5.41,91,15,120.8,10.21,14.6,22.13,30.88,37.74,30.3,15.27-.62,21-9.72,39.4-9.72s23.61,9.72,39.53,9.36c16.39-.26,26.7-14.66,36.55-29.38a120.7,120.7,0,0,0,16.72-34c-.38-.13-31.82-12.14-32.14-48.42Zm-30.07-89C141.08,28.15,146.69,14.18,145.14,0c-11.89.53-26.76,8.22-35.32,18.26-7.57,8.85-14.34,23.36-12.59,37C110.58,56.26,124.29,48.52,132.86,38.41Z"/>
</svg>
